<svg width="24" height="24" viewBox="0 0 24 24" fill="none" xmlns="http://www.w3.org/2000/svg">
<path d="M16.4505 17.221C14.5714 19.1105 11.8022 19.7072 9.42857 18.9116L7.35165 21L3 16.7238L5.07692 14.6354C4.87912 13.9392 4.68132 13.1436 4.68132 12.4475C4.68132 10.6575 5.37363 8.8674 6.65934 7.57458L9.42857 10.3591L8.83516 10.9558C7.74725 12.0497 7.74725 13.9392 8.83516 15.1326C9.92308 16.326 11.8022 16.2265 12.989 15.1326L13.6813 14.4365L16.4505 17.221Z" fill="#304FFE"/>
<path d="M17.1429 16.5249L13.6813 13.0442L12.2967 14.4365C11.5055 15.232 10.3187 15.232 9.52748 14.4365C8.73628 13.6409 8.73628 12.4475 9.52748 11.6519L10.9121 10.2597L7.45056 6.77901C9.32968 4.8895 12.0989 4.29282 14.4725 5.0884L16.6484 3L21 7.37569L18.8242 9.46409C19.022 10.1602 19.2198 10.9558 19.2198 11.6519C19.1209 13.442 18.5275 15.232 17.1429 16.5249Z" fill="#009688"/>
</svg>
