<svg width="24" height="24" viewBox="0 0 24 24" fill="none" xmlns="http://www.w3.org/2000/svg">
<path d="M4.26964 9.68264L9.03077 11.8383C9.983 12.2695 11.041 12.485 11.9933 12.485C12.9455 12.485 14.0035 12.2695 14.9557 11.8383L19.7169 9.68264C20.4575 9.35928 20.9865 8.60479 20.9865 7.74252C20.9865 6.88024 20.4575 6.12575 19.7169 5.8024L14.9557 3.64671C13.0513 2.78443 10.8294 2.78443 8.92497 3.64671L4.16383 5.8024C3.52902 6.01796 3 6.77246 3 7.63473C3 8.49701 3.52902 9.2515 4.26964 9.68264ZM9.8772 5.47904C10.6178 5.15569 11.2526 5.0479 11.9933 5.0479C12.7339 5.0479 13.4745 5.15569 14.1093 5.47904L18.8705 7.63473L14.1093 9.79042C12.8397 10.4371 11.2526 10.4371 9.8772 9.79042L5.11606 7.63473L9.8772 5.47904Z" fill="#1A1A1A"/>
<path d="M19.8227 14.3174L17.2834 13.1317C16.966 13.024 16.6486 13.024 16.437 13.1317L14.2151 14.1018C12.8397 14.7485 11.2526 14.7485 9.8772 14.1018L7.65533 13.1317C7.33793 13.024 7.02052 13.024 6.80891 13.1317L4.26964 14.3174C3.52902 14.6407 3 15.3952 3 16.2575C3 17.1198 3.52902 17.8743 4.26964 18.1976L9.03077 20.3533C9.983 20.7844 11.041 21 11.9933 21C12.9455 21 14.0035 20.7844 14.9557 20.3533L19.7169 18.1976C20.4575 17.8743 20.9865 17.1198 20.9865 16.2575C21.0923 15.3952 20.5633 14.6407 19.8227 14.3174Z" fill="#1A1A1A"/>
</svg>
