<svg width="24" height="24" viewBox="0 0 24 24" fill="none" xmlns="http://www.w3.org/2000/svg">
<path d="M21 10.7222C21 8.67416 20.1864 6.70998 18.7382 5.26179C17.29 3.81359 15.3258 3 13.2778 3C11.2297 3 9.26553 3.81359 7.81733 5.26179C6.36913 6.70998 5.55554 8.67416 5.55554 10.7222L13.2778 10.7222H21Z" fill="#0E9393"/>
<path d="M18.4444 12.3889C18.4444 14.437 17.6309 16.4012 16.1827 17.8494C14.7345 19.2976 12.7703 20.1111 10.7222 20.1111C8.67416 20.1111 6.70998 19.2976 5.26179 17.8494C3.81359 16.4012 3 14.437 3 12.3889L10.7222 12.3889H18.4444Z" fill="#0E9393"/>
</svg>
